<svg xmlns="http://www.w3.org/2000/svg" xmlns:xlink="http://www.w3.org/1999/xlink" width="100" zoomAndPan="magnify" viewBox="0 0 75 74.999997" height="100" preserveAspectRatio="xMidYMid meet" version="1.0"><defs><clipPath id="id1"><path d="M 9.796875 0 L 65.296875 0 L 65.296875 75 L 9.796875 75 Z M 9.796875 0 " clip-rule="nonzero"/></clipPath><clipPath id="id2"><path d="M 12 41 L 23 41 L 23 74.984375 L 12 74.984375 Z M 12 41 " clip-rule="nonzero"/></clipPath><clipPath id="id3"><path d="M 20 45 L 59 45 L 59 74.984375 L 20 74.984375 Z M 20 45 " clip-rule="nonzero"/></clipPath><clipPath id="id4"><path d="M 57 41 L 65.96875 41 L 65.96875 46 L 57 46 Z M 57 41 " clip-rule="nonzero"/></clipPath><clipPath id="id5"><path d="M 52 38 L 65.96875 38 L 65.96875 42 L 52 42 Z M 52 38 " clip-rule="nonzero"/></clipPath><clipPath id="id6"><path d="M 58 41 L 65.96875 41 L 65.96875 46 L 58 46 Z M 58 41 " clip-rule="nonzero"/></clipPath><clipPath id="id7"><path d="M 33 50 L 46 50 L 46 74.984375 L 33 74.984375 Z M 33 50 " clip-rule="nonzero"/></clipPath><clipPath id="id8"><path d="M 18 1.484375 L 51 1.484375 L 51 20 L 18 20 Z M 18 1.484375 " clip-rule="nonzero"/></clipPath><clipPath id="id9"><path d="M 19 1.484375 L 32 1.484375 L 32 15 L 19 15 Z M 19 1.484375 " clip-rule="nonzero"/></clipPath></defs><g clip-path="url(#id1)"><path fill="#ffffff" d="M 64.820312 19.238281 L 46.046875 0.496094 C 45.742188 0.191406 45.324219 0.0195312 44.890625 0.0195312 L 15.496094 0.0195312 C 12.355469 0.0195312 9.796875 2.566406 9.796875 5.691406 L 9.796875 68.304688 C 9.796875 71.984375 12.804688 74.980469 16.511719 74.980469 L 58.582031 74.980469 C 62.289062 74.980469 65.296875 71.984375 65.296875 68.304688 L 65.296875 20.390625 C 65.296875 19.957031 65.125 19.542969 64.820312 19.238281 Z M 24.488281 57.054688 C 23.589844 57.054688 22.855469 56.324219 22.855469 55.425781 C 22.855469 54.527344 23.589844 53.796875 24.488281 53.796875 C 25.386719 53.796875 26.121094 54.527344 26.121094 55.425781 C 26.121094 56.324219 25.386719 57.054688 24.488281 57.054688 Z M 24.488281 48.90625 C 23.589844 48.90625 22.855469 48.175781 22.855469 47.277344 C 22.855469 46.378906 23.589844 45.648438 24.488281 45.648438 C 25.386719 45.648438 26.121094 46.378906 26.121094 47.277344 C 26.121094 48.175781 25.386719 48.90625 24.488281 48.90625 Z M 24.488281 40.757812 C 23.589844 40.757812 22.855469 40.027344 22.855469 39.128906 C 22.855469 38.230469 23.589844 37.5 24.488281 37.5 C 25.386719 37.5 26.121094 38.230469 26.121094 39.128906 C 26.121094 40.027344 25.386719 40.757812 24.488281 40.757812 Z M 50.605469 57.054688 L 31.015625 57.054688 L 31.015625 53.796875 L 50.605469 53.796875 Z M 50.605469 48.90625 L 31.015625 48.90625 L 31.015625 45.648438 L 50.605469 45.648438 Z M 50.605469 40.757812 L 31.015625 40.757812 L 31.015625 37.5 L 50.605469 37.5 Z M 48.429688 19.574219 C 46.925781 19.574219 45.707031 18.359375 45.707031 16.855469 L 45.707031 4.769531 L 60.539062 19.574219 Z M 48.429688 19.574219 " fill-opacity="1" fill-rule="nonzero"/></g><path fill="#90537a" d="M 12.234375 37.023438 L 19.804688 39.324219 L 19.035156 31.726562 L 12.417969 30.550781 L 12.234375 37.023438 " fill-opacity="1" fill-rule="nonzero"/><g clip-path="url(#id2)"><path fill="#90537a" d="M 22.730469 43.0625 L 22.730469 74.949219 C 22.414062 74.957031 22.09375 74.960938 21.773438 74.96875 C 21.4375 74.972656 14.542969 69.570312 14.210938 69.574219 C 13.628906 59.867188 13.292969 51.648438 12.714844 41.941406 C 15.796875 42.15625 19.183594 42.566406 22.730469 43.0625 " fill-opacity="1" fill-rule="nonzero"/></g><g clip-path="url(#id3)"><path fill="#cd69ae" d="M 21.65625 74.96875 C 21.160156 65.972656 20.660156 54.042969 20.164062 45.050781 L 58.710938 45.050781 C 58.113281 54.042969 57.511719 65.972656 56.910156 74.96875 L 21.65625 74.96875 " fill-opacity="1" fill-rule="nonzero"/></g><path fill="#90537a" d="M 12.234375 43.546875 L 19.804688 45.847656 L 19.292969 38.761719 L 12.417969 37.074219 L 12.234375 43.546875 " fill-opacity="1" fill-rule="nonzero"/><path fill="#d66dae" d="M 19.4375 45.800781 C 19.277344 43.453125 19.117188 41.109375 18.957031 38.761719 L 61.472656 38.761719 C 61.269531 41.109375 61.070312 43.453125 60.871094 45.800781 L 19.4375 45.800781 " fill-opacity="1" fill-rule="nonzero"/><path fill="#cd69ae" d="M 19.210938 38.761719 C 19.042969 36.417969 18.878906 34.070312 18.714844 31.726562 L 62.570312 31.726562 C 62.367188 34.070312 62.160156 36.417969 61.953125 38.761719 L 19.210938 38.761719 " fill-opacity="1" fill-rule="nonzero"/><path fill="#fabecd" d="M 30.074219 45.855469 C 27.871094 45.855469 26.085938 43.753906 26.082031 41.164062 L 34.0625 41.164062 C 34.0625 43.753906 32.277344 45.855469 30.074219 45.855469 " fill-opacity="1" fill-rule="nonzero"/><path fill="#fabecd" d="M 29.011719 38.027344 L 34.0625 41.160156 L 26.042969 41.160156 L 20.992188 38.027344 L 29.011719 38.027344 " fill-opacity="1" fill-rule="nonzero"/><path fill="#8959b2" d="M 38.09375 45.855469 C 35.890625 45.855469 34.101562 43.753906 34.101562 41.164062 L 42.082031 41.164062 C 42.082031 43.753906 40.296875 45.855469 38.09375 45.855469 " fill-opacity="1" fill-rule="nonzero"/><path fill="#ffffff" d="M 41 41.796875 C 41 41.796875 34.566406 41.542969 34.566406 41.414062 L 41.617188 41.414062 C 41.617188 43.15625 40.703125 44.644531 39.410156 45.261719 C 40.367188 44.519531 41 43.246094 41 41.796875 " fill-opacity="1" fill-rule="nonzero"/><path fill="#8959b2" d="M 37.03125 38.027344 L 42.082031 41.160156 L 34.0625 41.160156 L 29.011719 38.027344 L 37.03125 38.027344 " fill-opacity="1" fill-rule="nonzero"/><path fill="#ffffff" d="M 37.238281 39.074219 L 30.671875 38.460938 L 37.28125 38.460938 L 40.421875 40.730469 L 37.238281 39.074219 " fill-opacity="1" fill-rule="nonzero"/><path fill="#ffffff" d="M 33.179688 41.796875 C 33.179688 41.796875 26.742188 41.542969 26.742188 41.414062 L 33.792969 41.414062 C 33.792969 43.15625 32.878906 44.644531 31.585938 45.261719 C 32.542969 44.519531 33.175781 43.246094 33.179688 41.796875 " fill-opacity="1" fill-rule="nonzero"/><path fill="#ffffff" d="M 29.414062 39.074219 L 22.847656 38.460938 L 29.457031 38.460938 L 32.597656 40.730469 L 29.414062 39.074219 " fill-opacity="1" fill-rule="nonzero"/><path fill="#fabecd" d="M 46.019531 45.855469 C 43.816406 45.855469 42.03125 43.753906 42.03125 41.164062 L 50.011719 41.164062 C 50.011719 43.753906 48.222656 45.855469 46.019531 45.855469 " fill-opacity="1" fill-rule="nonzero"/><path fill="#fabecd" d="M 44.957031 38.027344 L 50.011719 41.160156 L 41.992188 41.160156 L 36.9375 38.027344 L 44.957031 38.027344 " fill-opacity="1" fill-rule="nonzero"/><path fill="#8959b2" d="M 54.039062 45.855469 C 51.835938 45.855469 50.050781 43.753906 50.050781 41.164062 L 58.03125 41.164062 C 58.027344 43.753906 56.242188 45.855469 54.039062 45.855469 " fill-opacity="1" fill-rule="nonzero"/><path fill="#ffffff" d="M 56.949219 41.796875 C 56.949219 41.796875 50.515625 41.542969 50.515625 41.414062 L 57.566406 41.414062 C 57.566406 43.15625 56.652344 44.644531 55.359375 45.261719 C 56.316406 44.519531 56.949219 43.246094 56.949219 41.796875 " fill-opacity="1" fill-rule="nonzero"/><path fill="#8959b2" d="M 52.976562 38.027344 L 58.03125 41.160156 L 50.011719 41.160156 L 44.957031 38.027344 L 52.976562 38.027344 " fill-opacity="1" fill-rule="nonzero"/><path fill="#ffffff" d="M 53.183594 39.074219 L 46.621094 38.460938 L 53.226562 38.460938 L 56.367188 40.730469 L 53.183594 39.074219 " fill-opacity="1" fill-rule="nonzero"/><path fill="#ffffff" d="M 49.125 41.796875 C 49.125 41.796875 42.691406 41.542969 42.691406 41.414062 L 49.742188 41.414062 C 49.742188 43.15625 48.828125 44.644531 47.535156 45.261719 C 48.492188 44.519531 49.125 43.246094 49.125 41.796875 " fill-opacity="1" fill-rule="nonzero"/><path fill="#ffffff" d="M 45.359375 39.074219 L 38.796875 38.460938 L 45.402344 38.460938 L 48.542969 40.730469 L 45.359375 39.074219 " fill-opacity="1" fill-rule="nonzero"/><g clip-path="url(#id4)"><path fill="#fabecd" d="M 61.972656 45.855469 C 59.769531 45.855469 57.984375 43.753906 57.984375 41.164062 L 65.964844 41.164062 C 65.964844 43.753906 64.175781 45.855469 61.972656 45.855469 " fill-opacity="1" fill-rule="nonzero"/></g><g clip-path="url(#id5)"><path fill="#fabecd" d="M 60.910156 38.027344 L 65.964844 41.160156 L 57.945312 41.160156 L 52.890625 38.027344 L 60.910156 38.027344 " fill-opacity="1" fill-rule="nonzero"/></g><g clip-path="url(#id6)"><path fill="#ffffff" d="M 65.078125 41.796875 C 65.078125 41.796875 58.644531 41.542969 58.644531 41.414062 L 65.695312 41.414062 C 65.695312 43.15625 64.78125 44.644531 63.488281 45.261719 C 64.445312 44.519531 65.078125 43.246094 65.078125 41.796875 " fill-opacity="1" fill-rule="nonzero"/></g><path fill="#ffffff" d="M 61.3125 39.074219 L 54.75 38.460938 L 61.355469 38.460938 L 64.496094 40.730469 L 61.3125 39.074219 " fill-opacity="1" fill-rule="nonzero"/><path fill="#d66dae" d="M 12.417969 30.550781 L 56.277344 30.550781 L 62.570312 31.726562 L 18.714844 31.726562 L 12.417969 30.550781 " fill-opacity="1" fill-rule="nonzero"/><path fill="#8c9175" d="M 20.992188 37.980469 L 60.101562 37.980469 L 60.101562 33.523438 L 20.992188 33.523438 L 20.992188 37.980469 " fill-opacity="1" fill-rule="nonzero"/><path fill="#cfd5a6" d="M 21.914062 37.980469 L 61.023438 37.980469 L 61.023438 33.523438 L 21.914062 33.523438 L 21.914062 37.980469 " fill-opacity="1" fill-rule="nonzero"/><path fill="#eeedde" d="M 21.914062 36.261719 L 61.023438 36.261719 L 61.023438 35.242188 L 21.914062 35.242188 L 21.914062 36.261719 " fill-opacity="1" fill-rule="nonzero"/><path fill="#ffffff" d="M 60.039062 34.152344 L 24.296875 33.941406 L 60.710938 33.941406 L 60.710938 35.152344 L 60.039062 34.152344 " fill-opacity="1" fill-rule="nonzero"/><g clip-path="url(#id7)"><path fill="#633c56" d="M 33.980469 74.96875 C 33.828125 67.65625 33.675781 57.953125 33.519531 50.640625 L 45.355469 50.640625 C 45.167969 57.953125 44.984375 67.65625 44.800781 74.96875 L 33.980469 74.96875 " fill-opacity="1" fill-rule="nonzero"/></g><path fill="#cfd5a6" d="M 35.214844 63.09375 C 35.097656 60.175781 34.976562 56.308594 34.859375 53.394531 L 44.015625 53.394531 C 43.871094 56.308594 43.730469 60.175781 43.585938 63.09375 L 35.214844 63.09375 " fill-opacity="1" fill-rule="nonzero"/><path fill="#633c56" d="M 22.421875 72.003906 C 22.292969 65.800781 22.164062 57.566406 22.03125 51.363281 L 32.074219 51.363281 C 31.917969 57.566406 31.761719 65.800781 31.605469 72.003906 L 22.421875 72.003906 " fill-opacity="1" fill-rule="nonzero"/><path fill="#cfd5a6" d="M 23.46875 69.671875 C 23.367188 64.867188 23.269531 58.5 23.167969 53.699219 L 30.9375 53.699219 C 30.816406 58.5 30.695312 64.867188 30.574219 69.671875 L 23.46875 69.671875 " fill-opacity="1" fill-rule="nonzero"/><path fill="#633c56" d="M 29.113281 71.335938 L 29.582031 71.335938 L 29.582031 52.992188 L 29.113281 52.992188 L 29.113281 71.335938 " fill-opacity="1" fill-rule="nonzero"/><path fill="#633c56" d="M 26.894531 71.335938 L 27.363281 71.335938 L 27.363281 52.992188 L 26.894531 52.992188 L 26.894531 71.335938 " fill-opacity="1" fill-rule="nonzero"/><path fill="#633c56" d="M 24.675781 71.335938 L 25.144531 71.335938 L 25.144531 52.992188 L 24.675781 52.992188 L 24.675781 71.335938 " fill-opacity="1" fill-rule="nonzero"/><path fill="#633c56" d="M 31.46875 57.0625 L 31.46875 56.589844 L 22.785156 56.589844 L 22.785156 57.0625 L 31.46875 57.0625 " fill-opacity="1" fill-rule="nonzero"/><path fill="#633c56" d="M 31.46875 62.398438 L 31.46875 61.929688 L 22.785156 61.929688 L 22.785156 62.398438 L 31.46875 62.398438 " fill-opacity="1" fill-rule="nonzero"/><path fill="#633c56" d="M 31.46875 67.539062 L 31.46875 67.066406 L 22.785156 67.066406 L 22.785156 67.539062 L 31.46875 67.539062 " fill-opacity="1" fill-rule="nonzero"/><path fill="#633c56" d="M 47.5 72.003906 C 47.367188 65.800781 47.238281 57.566406 47.109375 51.363281 L 57.148438 51.363281 C 56.992188 57.566406 56.835938 65.800781 56.679688 72.003906 L 47.5 72.003906 " fill-opacity="1" fill-rule="nonzero"/><path fill="#cfd5a6" d="M 48.546875 69.671875 C 48.445312 64.867188 48.34375 58.5 48.242188 53.699219 L 56.015625 53.699219 C 55.894531 58.5 55.773438 64.867188 55.652344 69.671875 L 48.546875 69.671875 " fill-opacity="1" fill-rule="nonzero"/><path fill="#633c56" d="M 54.1875 71.335938 L 54.65625 71.335938 L 54.65625 52.992188 L 54.1875 52.992188 L 54.1875 71.335938 " fill-opacity="1" fill-rule="nonzero"/><path fill="#633c56" d="M 51.96875 71.335938 L 52.441406 71.335938 L 52.441406 52.992188 L 51.96875 52.992188 L 51.96875 71.335938 " fill-opacity="1" fill-rule="nonzero"/><path fill="#633c56" d="M 49.753906 71.335938 L 50.222656 71.335938 L 50.222656 52.992188 L 49.753906 52.992188 L 49.753906 71.335938 " fill-opacity="1" fill-rule="nonzero"/><path fill="#633c56" d="M 56.546875 57.0625 L 56.546875 56.589844 L 47.863281 56.589844 L 47.863281 57.0625 L 56.546875 57.0625 " fill-opacity="1" fill-rule="nonzero"/><path fill="#633c56" d="M 56.546875 62.398438 L 56.546875 61.929688 L 47.863281 61.929688 L 47.863281 62.398438 L 56.546875 62.398438 " fill-opacity="1" fill-rule="nonzero"/><path fill="#633c56" d="M 56.546875 67.539062 L 56.546875 67.066406 L 47.863281 67.066406 L 47.863281 67.539062 L 56.546875 67.539062 " fill-opacity="1" fill-rule="nonzero"/><path fill="#ffffff" d="M 39.4375 63.09375 L 40.617188 63.09375 L 42.984375 53.394531 L 41.804688 53.394531 L 39.4375 63.09375 " fill-opacity="1" fill-rule="nonzero"/><path fill="#ffffff" d="M 35.304688 63.09375 L 38.359375 63.09375 L 40.726562 53.394531 L 37.671875 53.394531 L 35.304688 63.09375 " fill-opacity="1" fill-rule="nonzero"/><path fill="#e5c5a7" d="M 26.25 30.367188 C 28.222656 31.140625 48.054688 30.601562 57.429688 30.660156 C 50.164062 22.597656 36.703125 9.414062 34.726562 8.644531 C 32.75 7.871094 29.253906 12.109375 26.910156 18.109375 C 24.570312 24.105469 24.273438 29.59375 26.25 30.367188 " fill-opacity="1" fill-rule="nonzero"/><path fill="#39272e" d="M 26.25 30.367188 C 25.691406 30.152344 25.3125 29.554688 25.113281 28.675781 C 27.277344 28.832031 31.460938 35 36.84375 12.929688 C 37.832031 12.785156 38.757812 12.585938 35 27.242188 C 34.589844 28.828125 40.027344 18.144531 41.824219 17.800781 C 42.648438 17.640625 38.0625 27.617188 38.660156 28.238281 C 39.230469 28.824219 41.941406 24.585938 43.882812 21.183594 C 45.195312 18.886719 42.28125 28.417969 42.988281 28.179688 C 43.523438 28 46.222656 23.859375 47.257812 23.875 C 47.511719 23.878906 45.746094 28.136719 45.992188 28.199219 C 48.789062 28.894531 53.242188 28.714844 54.582031 28.722656 C 48.789062 22.296875 39.054688 12.609375 34.347656 8.558594 C 34.480469 8.570312 34.605469 8.597656 34.726562 8.644531 C 36.703125 9.414062 50.164062 22.597656 57.429688 30.660156 C 48.054688 30.601562 28.222656 31.140625 26.25 30.367188 " fill-opacity="1" fill-rule="nonzero"/><path fill="#fce2c2" d="M 25.886719 31.292969 C 28.03125 32.132812 32.542969 27.976562 35.085938 21.46875 C 37.625 14.957031 37.234375 8.558594 35.089844 7.71875 C 32.945312 6.878906 29.148438 11.476562 26.605469 17.988281 C 24.066406 24.5 23.746094 30.457031 25.886719 31.292969 " fill-opacity="1" fill-rule="nonzero"/><path fill="#39272e" d="M 26.269531 30.375 C 28.035156 31.066406 31.363281 26.761719 33.703125 20.761719 C 36.046875 14.765625 36.511719 9.339844 34.746094 8.652344 C 32.980469 7.960938 29.648438 12.265625 27.308594 18.261719 C 24.96875 24.261719 24.5 29.6875 26.269531 30.375 " fill-opacity="1" fill-rule="nonzero"/><g clip-path="url(#id8)"><path fill="#a681a6" d="M 27.0625 19.054688 C 29.707031 19.074219 32.257812 17.863281 33.921875 15.804688 C 34.722656 14.816406 35.378906 13.589844 35.632812 12.328125 C 35.804688 11.476562 35.300781 10.53125 35.875 9.765625 C 37.660156 7.386719 42.910156 10.375 45.050781 10.871094 C 46.992188 11.324219 50.207031 10.710938 50.628906 8.605469 C 51.210938 5.683594 48.34375 5.273438 46.386719 5.941406 C 43.222656 7.015625 39.636719 8.832031 36.4375 6.890625 C 33.117188 4.878906 31.578125 1.582031 27.175781 1.550781 C 22.347656 1.519531 18.40625 5.414062 18.375 10.246094 C 18.34375 15.078125 22.230469 19.023438 27.0625 19.054688 " fill-opacity="1" fill-rule="nonzero"/></g><g clip-path="url(#id9)"><path fill="#ffffff" d="M 26.535156 2.785156 C 19.832031 3.289062 18.070312 9.402344 20.777344 14.152344 C 17.722656 9.800781 18.425781 2.597656 27.066406 1.902344 C 31.628906 1.539062 33.328125 7.644531 30.417969 8.96875 C 27.8125 10.15625 30.480469 2.484375 26.535156 2.785156 " fill-opacity="1" fill-rule="nonzero"/></g><path fill="#39272e" d="M 35.617188 10.382812 C 35.644531 10.21875 35.695312 10.054688 35.785156 9.902344 C 35.75 10.152344 35.691406 10.304688 35.617188 10.382812 Z M 28.046875 19.007812 L 28.046875 19.003906 C 30.230469 18.773438 32.171875 17.742188 33.574219 16.203125 C 33.613281 16.164062 33.648438 16.125 33.679688 16.085938 C 33.746094 16.011719 33.8125 15.9375 33.875 15.859375 L 33.921875 15.804688 C 33.949219 15.769531 33.976562 15.730469 34.007812 15.695312 C 34.050781 15.636719 34.113281 15.585938 34.140625 15.519531 C 36.59375 9.15625 46.835938 19.617188 47.027344 14.660156 C 47.195312 10.214844 35.425781 13.34375 35.632812 12.328125 L 35.640625 12.265625 C 35.78125 11.652344 35.859375 11.015625 35.863281 10.359375 C 35.863281 10.175781 35.859375 9.988281 35.847656 9.804688 L 35.875 9.765625 C 37.660156 7.386719 42.910156 10.375 45.050781 10.871094 C 46.992188 11.324219 50.207031 10.710938 50.628906 8.605469 C 50.886719 7.304688 50.464844 6.503906 49.742188 6.074219 C 49.992188 6.519531 50.082031 7.117188 49.925781 7.894531 C 49.503906 10 46.289062 10.613281 44.351562 10.160156 C 42.207031 9.660156 36.960938 6.675781 35.171875 9.054688 C 34.976562 9.3125 34.90625 9.597656 34.894531 9.890625 C 33.847656 8.390625 32.296875 4.496094 32.234375 7.207031 C 32.035156 16.085938 27.613281 17.851562 27.03125 17.847656 C 22.507812 17.820312 18.808594 14.355469 18.382812 9.945312 C 18.378906 10.042969 18.375 10.144531 18.375 10.246094 C 18.355469 13.292969 19.890625 15.984375 22.238281 17.566406 L 22.273438 17.585938 C 22.382812 17.660156 22.496094 17.734375 22.609375 17.800781 C 22.632812 17.816406 22.660156 17.832031 22.683594 17.84375 C 22.785156 17.90625 22.886719 17.964844 22.988281 18.019531 C 23.023438 18.035156 23.058594 18.054688 23.09375 18.074219 C 23.1875 18.121094 23.285156 18.171875 23.382812 18.214844 C 23.421875 18.234375 23.464844 18.253906 23.507812 18.273438 C 23.597656 18.316406 23.691406 18.355469 23.785156 18.394531 C 23.832031 18.414062 23.878906 18.433594 23.925781 18.449219 C 24.015625 18.488281 24.109375 18.519531 24.199219 18.550781 C 24.25 18.570312 24.300781 18.589844 24.351562 18.605469 C 24.441406 18.636719 24.53125 18.664062 24.625 18.691406 C 24.679688 18.707031 24.730469 18.722656 24.785156 18.738281 C 24.875 18.761719 24.96875 18.785156 25.058594 18.808594 C 25.113281 18.824219 25.171875 18.835938 25.226562 18.847656 C 25.320312 18.867188 25.410156 18.886719 25.503906 18.902344 C 25.5625 18.914062 25.617188 18.925781 25.675781 18.933594 C 25.769531 18.953125 25.867188 18.964844 25.964844 18.976562 C 26.019531 18.984375 26.074219 18.992188 26.132812 19 C 26.238281 19.011719 26.34375 19.019531 26.449219 19.027344 C 26.496094 19.03125 26.546875 19.035156 26.59375 19.039062 C 26.75 19.050781 26.90625 19.054688 27.0625 19.054688 L 27.066406 19.054688 C 27.226562 19.058594 27.386719 19.050781 27.546875 19.042969 L 27.601562 19.039062 C 27.75 19.03125 27.898438 19.019531 28.046875 19.007812 " fill-opacity="1" fill-rule="nonzero"/><path fill="#ffffff" d="M 25.742188 8.394531 C 27.667969 7.578125 28.789062 5.878906 28.246094 4.601562 C 27.707031 3.320312 25.707031 2.945312 23.785156 3.761719 C 21.859375 4.578125 20.738281 6.273438 21.28125 7.554688 C 21.820312 8.832031 23.820312 9.207031 25.742188 8.394531 " fill-opacity="1" fill-rule="nonzero"/><path fill="#ea4f5c" d="M 22.945312 31.671875 C 18.117188 31.640625 14.226562 27.695312 14.257812 22.859375 C 14.289062 18.027344 18.230469 14.136719 23.0625 14.167969 C 25.566406 14.183594 27.988281 15.300781 29.625 17.203125 C 31.351562 19.203125 32.398438 20.898438 35.320312 21.203125 C 36.707031 21.347656 38.089844 21.078125 39.449219 21.171875 C 40.726562 21.257812 42.125 22.027344 41.183594 23.597656 C 40.304688 25.0625 36.671875 25.390625 35.242188 25.03125 C 34.535156 24.855469 32.941406 23.921875 31.703125 23.800781 C 31.261719 28.246094 27.5 31.703125 22.945312 31.671875 " fill-opacity="1" fill-rule="nonzero"/><path fill="#ffffff" d="M 22.417969 15.398438 C 15.71875 15.90625 13.957031 22.019531 16.664062 26.769531 C 13.605469 22.414062 14.308594 15.214844 22.949219 14.519531 C 27.515625 14.152344 29.214844 20.261719 26.300781 21.585938 C 23.699219 22.769531 26.367188 15.101562 22.417969 15.398438 " fill-opacity="1" fill-rule="nonzero"/><path fill="#39272e" d="M 31.648438 24.222656 C 31.632812 24.339844 31.613281 24.453125 31.589844 24.570312 C 31.585938 24.589844 31.582031 24.617188 31.578125 24.636719 C 31.554688 24.75 31.53125 24.859375 31.507812 24.964844 C 31.5 24.992188 31.492188 25.019531 31.484375 25.050781 C 31.460938 25.152344 31.429688 25.257812 31.402344 25.359375 C 31.394531 25.390625 31.382812 25.417969 31.375 25.449219 C 31.34375 25.550781 31.3125 25.648438 31.28125 25.746094 C 31.269531 25.777344 31.257812 25.8125 31.246094 25.84375 C 31.210938 25.941406 31.175781 26.035156 31.136719 26.132812 C 31.125 26.164062 31.113281 26.195312 31.097656 26.226562 C 31.058594 26.320312 31.019531 26.414062 30.980469 26.507812 C 30.964844 26.539062 30.949219 26.570312 30.933594 26.605469 C 30.894531 26.695312 30.851562 26.785156 30.804688 26.875 C 30.789062 26.902344 30.773438 26.9375 30.753906 26.96875 C 30.710938 27.054688 30.660156 27.144531 30.613281 27.230469 C 30.597656 27.261719 30.578125 27.292969 30.558594 27.320312 C 30.507812 27.410156 30.457031 27.496094 30.40625 27.578125 C 30.386719 27.609375 30.371094 27.632812 30.351562 27.664062 C 30.296875 27.75 30.238281 27.835938 30.179688 27.917969 C 30.164062 27.941406 30.144531 27.964844 30.128906 27.988281 C 30.066406 28.074219 30.007812 28.160156 29.941406 28.246094 L 29.902344 28.292969 C 29.597656 28.6875 29.257812 29.054688 28.890625 29.390625 L 28.863281 29.414062 C 28.792969 29.476562 28.722656 29.535156 28.652344 29.597656 C 28.621094 29.625 28.585938 29.65625 28.554688 29.683594 C 28.492188 29.734375 28.425781 29.785156 28.359375 29.835938 C 28.316406 29.867188 28.273438 29.902344 28.230469 29.933594 C 28.167969 29.980469 28.105469 30.027344 28.042969 30.070312 C 27.992188 30.105469 27.945312 30.140625 27.898438 30.171875 C 27.835938 30.214844 27.773438 30.253906 27.710938 30.292969 C 27.660156 30.328125 27.605469 30.363281 27.550781 30.394531 C 27.488281 30.433594 27.429688 30.46875 27.363281 30.503906 C 27.308594 30.535156 27.25 30.570312 27.195312 30.601562 C 27.132812 30.632812 27.070312 30.667969 27.007812 30.699219 C 26.949219 30.730469 26.886719 30.761719 26.828125 30.792969 C 26.765625 30.820312 26.703125 30.851562 26.640625 30.878906 C 26.578125 30.90625 26.511719 30.9375 26.449219 30.964844 C 26.386719 30.992188 26.324219 31.015625 26.261719 31.042969 C 26.195312 31.070312 26.128906 31.09375 26.0625 31.117188 C 26 31.140625 25.9375 31.164062 25.875 31.1875 C 25.804688 31.210938 25.734375 31.234375 25.667969 31.253906 C 25.605469 31.273438 25.542969 31.296875 25.480469 31.316406 C 25.40625 31.335938 25.335938 31.355469 25.261719 31.375 C 25.199219 31.390625 25.136719 31.40625 25.074219 31.421875 C 25 31.441406 24.921875 31.457031 24.847656 31.472656 C 24.785156 31.488281 24.722656 31.503906 24.660156 31.515625 C 24.582031 31.527344 24.503906 31.542969 24.421875 31.554688 C 24.363281 31.5625 24.300781 31.574219 24.242188 31.582031 C 24.15625 31.59375 24.070312 31.605469 23.988281 31.613281 C 23.929688 31.621094 23.871094 31.628906 23.816406 31.632812 C 23.722656 31.640625 23.625 31.648438 23.527344 31.652344 C 23.480469 31.65625 23.433594 31.660156 23.382812 31.664062 C 23.238281 31.667969 23.09375 31.671875 22.945312 31.671875 C 22.804688 31.671875 22.664062 31.664062 22.523438 31.65625 C 22.476562 31.65625 22.429688 31.652344 22.386719 31.648438 C 22.289062 31.640625 22.199219 31.632812 22.105469 31.625 C 22.050781 31.617188 21.996094 31.613281 21.945312 31.605469 C 21.859375 31.59375 21.773438 31.585938 21.691406 31.570312 C 21.636719 31.5625 21.578125 31.554688 21.523438 31.546875 C 21.441406 31.53125 21.363281 31.515625 21.28125 31.5 C 21.226562 31.488281 21.171875 31.476562 21.117188 31.464844 C 21.035156 31.449219 20.953125 31.425781 20.871094 31.40625 C 20.820312 31.394531 20.769531 31.382812 20.71875 31.367188 C 20.628906 31.34375 20.539062 31.316406 20.453125 31.292969 C 20.414062 31.277344 20.371094 31.265625 20.332031 31.253906 C 20.203125 31.214844 20.078125 31.171875 19.953125 31.125 C 19.917969 31.109375 19.878906 31.09375 19.84375 31.078125 C 19.757812 31.046875 19.667969 31.011719 19.585938 30.976562 C 19.53125 30.953125 19.480469 30.929688 19.429688 30.90625 C 19.359375 30.875 19.289062 30.84375 19.222656 30.8125 C 19.167969 30.785156 19.113281 30.757812 19.058594 30.730469 C 18.996094 30.699219 18.929688 30.664062 18.871094 30.632812 C 18.8125 30.601562 18.757812 30.570312 18.703125 30.539062 C 18.644531 30.503906 18.585938 30.472656 18.527344 30.4375 C 18.472656 30.402344 18.414062 30.367188 18.359375 30.335938 C 18.304688 30.300781 18.25 30.261719 18.191406 30.226562 C 18.140625 30.191406 18.082031 30.15625 18.027344 30.117188 C 17.976562 30.082031 17.925781 30.042969 17.875 30.003906 C 17.753906 29.917969 17.636719 29.828125 17.523438 29.738281 C 17.492188 29.710938 17.457031 29.683594 17.425781 29.660156 C 17.363281 29.609375 17.308594 29.558594 17.25 29.503906 C 17.207031 29.472656 17.167969 29.4375 17.132812 29.402344 C 17.074219 29.351562 17.019531 29.296875 16.960938 29.242188 C 16.921875 29.207031 16.886719 29.171875 16.851562 29.136719 C 16.792969 29.082031 16.738281 29.023438 16.683594 28.964844 C 16.648438 28.929688 16.617188 28.894531 16.582031 28.859375 C 16.527344 28.800781 16.472656 28.738281 16.421875 28.675781 C 16.390625 28.644531 16.363281 28.609375 16.332031 28.574219 C 16.277344 28.511719 16.222656 28.441406 16.167969 28.375 C 16.144531 28.347656 16.125 28.320312 16.105469 28.292969 C 15.835938 27.945312 15.589844 27.578125 15.371094 27.191406 C 15.359375 27.167969 15.347656 27.148438 15.335938 27.125 C 15.289062 27.042969 15.246094 26.953125 15.199219 26.867188 C 15.1875 26.839844 15.171875 26.808594 15.15625 26.78125 C 15.113281 26.695312 15.074219 26.609375 15.035156 26.523438 C 15.019531 26.492188 15.007812 26.464844 14.996094 26.433594 C 14.957031 26.34375 14.917969 26.253906 14.878906 26.164062 C 14.871094 26.136719 14.863281 26.113281 14.851562 26.089844 C 14.8125 25.992188 14.777344 25.894531 14.742188 25.792969 L 14.738281 25.777344 C 14.617188 25.433594 14.519531 25.074219 14.441406 24.707031 C 14.320312 24.113281 14.253906 23.492188 14.257812 22.859375 C 14.261719 22.757812 14.265625 22.660156 14.269531 22.558594 C 14.691406 26.972656 18.390625 30.433594 22.914062 30.464844 C 23.496094 30.46875 27.917969 28.703125 28.117188 19.824219 C 28.125 19.613281 28.09375 18.953125 28.382812 18.890625 C 28.636719 18.839844 28.878906 19.289062 28.984375 19.449219 C 29.570312 20.324219 30.066406 21.28125 30.59375 22.195312 C 30.730469 22.433594 30.847656 22.847656 31.179688 22.878906 C 31.519531 22.910156 31.59375 20.585938 31.648438 20.324219 C 31.945312 20.828125 30.464844 25.796875 39.738281 23.546875 C 40.605469 23.335938 40.878906 22.71875 41.214844 21.910156 C 41.847656 23.085938 41.019531 24.113281 39.921875 24.546875 C 38.773438 25.003906 37.644531 25.136719 36.414062 25.167969 C 35.550781 25.195312 34.789062 24.875 34.015625 24.539062 C 33.835938 24.464844 31.714844 23.675781 31.703125 23.800781 C 31.691406 23.925781 31.671875 24.050781 31.65625 24.175781 L 31.648438 24.222656 " fill-opacity="1" fill-rule="nonzero"/><path fill="#ffffff" d="M 21.628906 21.007812 C 23.550781 20.195312 24.671875 18.496094 24.128906 17.21875 C 23.589844 15.9375 21.589844 15.5625 19.667969 16.375 C 17.742188 17.191406 16.621094 18.890625 17.164062 20.167969 C 17.707031 21.449219 19.703125 21.824219 21.628906 21.007812 " fill-opacity="1" fill-rule="nonzero"/><path fill="#a8dfac" d="M 18.300781 21.339844 C 23.132812 21.371094 27.070312 17.480469 27.105469 12.644531 C 27.136719 7.8125 23.246094 3.867188 18.417969 3.835938 C 13.589844 3.804688 9.648438 7.695312 9.613281 12.53125 C 9.582031 17.363281 13.472656 21.308594 18.300781 21.339844 " fill-opacity="1" fill-rule="nonzero"/><path fill="#ffffff" d="M 17.773438 5.070312 C 11.074219 5.574219 9.308594 11.6875 12.019531 16.4375 C 8.960938 12.082031 9.664062 4.882812 18.304688 4.1875 C 22.871094 3.820312 24.570312 9.929688 21.65625 11.253906 C 19.054688 12.4375 21.722656 4.769531 17.773438 5.070312 " fill-opacity="1" fill-rule="nonzero"/><path fill="#39272e" d="M 9.613281 12.53125 C 9.613281 12.429688 9.621094 12.328125 9.625 12.226562 C 10.046875 16.636719 13.746094 20.101562 18.269531 20.132812 C 18.851562 20.136719 23.273438 18.371094 23.476562 9.492188 C 23.566406 5.492188 26.898438 15.855469 27.0625 11.738281 C 27.09375 12.035156 27.105469 12.339844 27.105469 12.644531 C 27.070312 17.480469 23.132812 21.371094 18.300781 21.339844 C 13.472656 21.308594 9.582031 17.363281 9.613281 12.53125 " fill-opacity="1" fill-rule="nonzero"/><path fill="#ffffff" d="M 16.984375 10.675781 C 18.90625 9.863281 20.027344 8.164062 19.484375 6.886719 C 18.945312 5.605469 16.945312 5.230469 15.023438 6.042969 C 13.097656 6.859375 11.980469 8.558594 12.519531 9.835938 C 13.0625 11.117188 15.058594 11.492188 16.984375 10.675781 " fill-opacity="1" fill-rule="nonzero"/><path fill="#ffffff" d="M 47.355469 8.152344 C 48.5625 7.917969 49.445312 7.25 49.332031 6.664062 C 49.21875 6.078125 48.148438 5.792969 46.945312 6.027344 C 45.738281 6.261719 43.539062 7.679688 42.0625 8.136719 C 41.492188 8.316406 46.152344 8.386719 47.355469 8.152344 " fill-opacity="1" fill-rule="nonzero"/></svg>