<svg xmlns="http://www.w3.org/2000/svg" xmlns:xlink="http://www.w3.org/1999/xlink" width="100" zoomAndPan="magnify" viewBox="0 0 75 74.999997" height="100" preserveAspectRatio="xMidYMid meet" version="1.0"><defs><filter x="0%" y="0%" width="100%" height="100%" id="a30742bd40"><feColorMatrix values="0 0 0 0 1 0 0 0 0 1 0 0 0 0 1 0 0 0 1 0" color-interpolation-filters="sRGB"/></filter><clipPath id="a807e7c4b4"><path d="M 20.863281 0 L 53.863281 0 L 53.863281 55 L 20.863281 55 Z M 20.863281 0 " clip-rule="nonzero"/></clipPath><clipPath id="47110a4d0c"><path d="M 20.863281 32 L 53.863281 32 L 53.863281 55 L 20.863281 55 Z M 20.863281 32 " clip-rule="nonzero"/></clipPath><mask id="9e8dfc71ef"><g filter="url(#a30742bd40)"><rect x="-7.5" width="90" fill="#000000" y="-7.5" height="89.999996" fill-opacity="0.498"/></g></mask><clipPath id="a318ededd4"><path d="M 1 0 L 6 0 L 6 33.601562 L 1 33.601562 Z M 1 0 " clip-rule="nonzero"/></clipPath><clipPath id="249441ab40"><path d="M 9 0 L 13.921875 0 L 13.921875 33.601562 L 9 33.601562 Z M 9 0 " clip-rule="nonzero"/></clipPath><clipPath id="b7b5339ff7"><rect x="0" width="14" y="0" height="34"/></clipPath><clipPath id="253a8189ee"><path d="M 25 0 L 53.863281 0 L 53.863281 55 L 25 55 Z M 25 0 " clip-rule="nonzero"/></clipPath><clipPath id="9c7676828e"><path d="M 42 37 L 53.863281 37 L 53.863281 55 L 42 55 Z M 42 37 " clip-rule="nonzero"/></clipPath></defs><path fill="#f7c06c" d="M 41.628906 40.261719 L 41.628906 70.691406 C 41.628906 71.640625 41.320312 72.507812 40.804688 73.234375 C 40.035156 74.308594 38.761719 75 37.355469 75 C 34.984375 75 33.078125 73.0625 33.078125 70.691406 L 33.078125 40.261719 Z M 41.628906 40.261719 " fill-opacity="1" fill-rule="nonzero"/><path fill="#f7c06c" d="M 41.628906 49.367188 L 41.628906 56.789062 C 41.199219 57.085938 40.71875 57.328125 40.238281 57.550781 C 37.9375 58.660156 35.550781 59.664062 33.078125 60.21875 L 33.078125 50.507812 C 35.003906 49.488281 37.21875 49.070312 39.398438 49.019531 C 39.964844 49 40.53125 49.019531 41.082031 49.15625 C 41.285156 49.226562 41.457031 49.296875 41.628906 49.367188 Z M 41.628906 49.367188 " fill-opacity="0.6" fill-rule="nonzero"/><g clip-path="url(#a807e7c4b4)"><path fill="#fed502" d="M 53.855469 45.972656 C 53.855469 46.023438 53.855469 46.09375 53.855469 46.164062 C 53.855469 46.25 53.855469 46.335938 53.835938 46.441406 C 53.835938 46.507812 53.820312 46.578125 53.820312 46.628906 C 53.820312 46.71875 53.804688 46.804688 53.785156 46.890625 C 53.785156 46.960938 53.769531 47.027344 53.75 47.082031 C 53.734375 47.167969 53.734375 47.234375 53.71875 47.324219 C 53.699219 47.390625 53.683594 47.460938 53.683594 47.511719 C 53.664062 47.601562 53.648438 47.667969 53.632812 47.753906 C 53.613281 47.824219 53.597656 47.894531 53.578125 47.945312 C 53.5625 48.03125 53.546875 48.101562 53.527344 48.171875 C 53.511719 48.242188 53.492188 48.308594 53.460938 48.363281 C 53.441406 48.429688 53.40625 48.5 53.390625 48.585938 C 53.375 48.65625 53.339844 48.707031 53.320312 48.777344 C 53.289062 48.847656 53.269531 48.914062 53.234375 49 C 53.203125 49.070312 53.183594 49.121094 53.148438 49.191406 C 53.117188 49.261719 53.097656 49.332031 53.066406 49.398438 C 53.03125 49.453125 53.011719 49.519531 52.980469 49.589844 C 52.945312 49.660156 52.910156 49.730469 52.875 49.796875 C 52.839844 49.851562 52.808594 49.917969 52.773438 49.972656 C 52.738281 50.039062 52.703125 50.109375 52.667969 50.160156 C 52.636719 50.214844 52.601562 50.28125 52.566406 50.335938 C 52.53125 50.402344 52.480469 50.457031 52.445312 50.523438 C 52.410156 50.578125 52.359375 50.628906 52.328125 50.699219 C 52.292969 50.765625 52.242188 50.820312 52.1875 50.886719 C 52.15625 50.941406 52.101562 50.992188 52.070312 51.042969 C 52.015625 51.097656 51.984375 51.164062 51.929688 51.21875 C 51.878906 51.269531 51.84375 51.320312 51.792969 51.375 C 51.742188 51.425781 51.691406 51.476562 51.640625 51.546875 C 51.589844 51.597656 51.535156 51.648438 51.503906 51.703125 C 51.449219 51.753906 51.417969 51.789062 51.363281 51.839844 C 51.3125 51.890625 51.261719 51.945312 51.210938 51.996094 C 51.160156 52.046875 51.105469 52.082031 51.054688 52.136719 C 51.003906 52.1875 50.953125 52.238281 50.882812 52.273438 C 50.832031 52.324219 50.78125 52.359375 50.730469 52.394531 C 50.679688 52.445312 50.609375 52.480469 50.558594 52.53125 C 50.507812 52.566406 50.453125 52.621094 50.402344 52.652344 C 50.351562 52.707031 50.28125 52.742188 50.214844 52.773438 C 50.164062 52.808594 50.113281 52.84375 50.042969 52.878906 C 49.972656 52.914062 49.921875 52.964844 49.855469 53 C 49.800781 53.035156 49.734375 53.070312 49.683594 53.105469 C 49.613281 53.140625 49.542969 53.171875 49.492188 53.207031 C 49.441406 53.242188 49.375 53.277344 49.320312 53.292969 C 49.253906 53.328125 49.183594 53.363281 49.117188 53.398438 C 49.0625 53.433594 48.996094 53.449219 48.945312 53.484375 C 48.875 53.519531 48.804688 53.535156 48.738281 53.570312 C 48.667969 53.605469 48.617188 53.625 48.550781 53.640625 C 48.480469 53.675781 48.410156 53.691406 48.324219 53.726562 C 48.257812 53.746094 48.207031 53.777344 48.136719 53.796875 C 48.070312 53.832031 47.984375 53.847656 47.914062 53.867188 C 47.84375 53.882812 47.792969 53.898438 47.726562 53.917969 C 47.640625 53.933594 47.570312 53.953125 47.5 53.96875 C 47.433594 53.988281 47.382812 54.003906 47.3125 54.019531 C 47.226562 54.039062 47.160156 54.054688 47.074219 54.074219 C 47.019531 54.089844 46.953125 54.109375 46.882812 54.109375 C 46.796875 54.125 46.710938 54.144531 46.625 54.144531 C 46.574219 54.144531 46.507812 54.160156 46.453125 54.160156 C 46.351562 54.175781 46.25 54.175781 46.144531 54.175781 C 46.09375 54.175781 46.058594 54.195312 46.007812 54.195312 C 45.855469 54.195312 45.714844 54.210938 45.5625 54.210938 L 29.132812 54.210938 C 28.976562 54.210938 28.820312 54.210938 28.683594 54.195312 C 28.632812 54.195312 28.597656 54.195312 28.546875 54.175781 C 28.445312 54.175781 28.339844 54.160156 28.238281 54.160156 C 28.1875 54.160156 28.117188 54.144531 28.066406 54.144531 C 27.980469 54.125 27.894531 54.125 27.808594 54.109375 C 27.742188 54.109375 27.6875 54.089844 27.621094 54.074219 C 27.535156 54.054688 27.449219 54.039062 27.378906 54.019531 C 27.3125 54.003906 27.261719 53.988281 27.191406 53.96875 C 27.105469 53.953125 27.035156 53.933594 26.949219 53.917969 C 26.882812 53.898438 26.832031 53.882812 26.761719 53.867188 C 26.691406 53.847656 26.605469 53.8125 26.539062 53.796875 C 26.46875 53.777344 26.417969 53.761719 26.351562 53.726562 C 26.28125 53.691406 26.210938 53.675781 26.125 53.640625 C 26.074219 53.625 26.007812 53.589844 25.953125 53.570312 C 25.886719 53.535156 25.816406 53.519531 25.75 53.484375 C 25.699219 53.449219 25.628906 53.433594 25.578125 53.398438 C 25.507812 53.363281 25.441406 53.328125 25.371094 53.292969 C 25.355469 53.292969 25.335938 53.277344 25.335938 53.277344 C 25.285156 53.261719 25.25 53.226562 25.199219 53.207031 C 25.132812 53.171875 25.0625 53.140625 25.011719 53.105469 C 24.960938 53.070312 24.90625 53.035156 24.839844 53 C 24.769531 52.964844 24.71875 52.914062 24.648438 52.878906 C 24.597656 52.84375 24.546875 52.808594 24.476562 52.773438 C 24.425781 52.742188 24.359375 52.6875 24.308594 52.652344 C 24.253906 52.621094 24.203125 52.566406 24.152344 52.53125 C 24.101562 52.480469 24.03125 52.445312 23.980469 52.394531 C 23.929688 52.359375 23.878906 52.308594 23.824219 52.273438 C 23.773438 52.222656 23.722656 52.1875 23.65625 52.136719 C 23.601562 52.082031 23.550781 52.046875 23.515625 51.996094 C 23.464844 51.945312 23.414062 51.890625 23.363281 51.839844 C 23.3125 51.789062 23.277344 51.753906 23.226562 51.703125 C 23.171875 51.648438 23.121094 51.597656 23.070312 51.546875 C 23.019531 51.496094 22.96875 51.441406 22.917969 51.375 C 22.863281 51.320312 22.832031 51.269531 22.777344 51.21875 C 22.726562 51.164062 22.691406 51.097656 22.640625 51.042969 C 22.605469 50.992188 22.554688 50.941406 22.519531 50.886719 C 22.46875 50.835938 22.433594 50.765625 22.382812 50.699219 C 22.347656 50.644531 22.296875 50.59375 22.265625 50.523438 C 22.210938 50.472656 22.179688 50.402344 22.144531 50.335938 C 22.109375 50.28125 22.074219 50.214844 22.039062 50.160156 C 22.007812 50.09375 21.972656 50.039062 21.9375 49.972656 C 21.902344 49.917969 21.867188 49.851562 21.835938 49.796875 C 21.800781 49.730469 21.765625 49.660156 21.730469 49.589844 C 21.695312 49.539062 21.679688 49.46875 21.644531 49.398438 C 21.609375 49.332031 21.578125 49.261719 21.558594 49.191406 C 21.527344 49.121094 21.507812 49.070312 21.472656 49 C 21.441406 48.933594 21.421875 48.863281 21.386719 48.777344 C 21.371094 48.707031 21.335938 48.65625 21.320312 48.585938 C 21.285156 48.515625 21.269531 48.429688 21.25 48.363281 C 21.234375 48.292969 21.214844 48.242188 21.199219 48.171875 C 21.183594 48.101562 21.164062 48.015625 21.128906 47.945312 C 21.113281 47.875 21.097656 47.808594 21.078125 47.753906 C 21.0625 47.667969 21.042969 47.601562 21.027344 47.511719 C 21.011719 47.445312 20.992188 47.375 20.992188 47.324219 C 20.976562 47.234375 20.957031 47.148438 20.957031 47.082031 C 20.941406 47.011719 20.941406 46.941406 20.925781 46.890625 C 20.925781 46.804688 20.90625 46.71875 20.90625 46.628906 C 20.90625 46.5625 20.890625 46.507812 20.890625 46.441406 C 20.890625 46.355469 20.890625 46.265625 20.871094 46.164062 C 20.871094 46.09375 20.871094 46.042969 20.871094 45.972656 C 20.871094 45.867188 20.871094 45.765625 20.871094 45.660156 C 20.871094 45.609375 20.871094 45.558594 20.871094 45.503906 C 20.871094 45.351562 20.890625 45.195312 20.90625 45.039062 L 22.726562 33.492188 C 22.726562 33.476562 22.726562 33.476562 22.726562 33.457031 L 25.132812 18.15625 L 25.132812 18.121094 L 26.230469 11.09375 C 26.453125 8.722656 27.34375 6.578125 28.683594 4.792969 C 30.726562 2.09375 33.835938 0.3125 37.355469 0 C 40.875 0.292969 43.980469 2.09375 46.023438 4.792969 C 47.363281 6.558594 48.257812 8.722656 48.480469 11.09375 L 49.578125 18.121094 C 49.578125 18.140625 49.578125 18.140625 49.578125 18.15625 L 51.984375 33.457031 C 51.984375 33.476562 51.984375 33.492188 51.984375 33.492188 L 52.722656 38.167969 L 53.804688 45.039062 C 53.820312 45.195312 53.835938 45.351562 53.835938 45.503906 L 53.835938 45.660156 C 53.855469 45.765625 53.855469 45.867188 53.855469 45.972656 Z M 53.855469 45.972656 " fill-opacity="1" fill-rule="nonzero"/></g><g clip-path="url(#47110a4d0c)"><path fill="#47c2bf" d="M 53.855469 45.972656 C 53.855469 46.023438 53.855469 46.09375 53.855469 46.164062 C 53.855469 46.25 53.855469 46.335938 53.835938 46.441406 C 53.835938 46.507812 53.820312 46.578125 53.820312 46.628906 C 53.820312 46.71875 53.804688 46.804688 53.785156 46.890625 C 53.785156 46.960938 53.769531 47.027344 53.75 47.082031 C 53.734375 47.167969 53.734375 47.234375 53.71875 47.324219 C 53.699219 47.390625 53.683594 47.460938 53.683594 47.511719 C 53.664062 47.601562 53.648438 47.667969 53.632812 47.753906 C 53.613281 47.824219 53.597656 47.894531 53.578125 47.945312 C 53.5625 48.03125 53.546875 48.101562 53.527344 48.171875 C 53.511719 48.242188 53.492188 48.308594 53.460938 48.363281 C 53.441406 48.429688 53.40625 48.5 53.390625 48.585938 C 53.375 48.65625 53.339844 48.707031 53.320312 48.777344 C 53.289062 48.847656 53.269531 48.914062 53.234375 49 C 53.203125 49.070312 53.183594 49.121094 53.148438 49.191406 C 53.117188 49.261719 53.097656 49.332031 53.066406 49.398438 C 53.03125 49.453125 53.011719 49.519531 52.980469 49.589844 C 52.945312 49.660156 52.910156 49.730469 52.875 49.796875 C 52.839844 49.851562 52.808594 49.917969 52.773438 49.972656 C 52.738281 50.039062 52.703125 50.109375 52.667969 50.160156 C 52.636719 50.214844 52.601562 50.28125 52.566406 50.335938 C 52.53125 50.402344 52.480469 50.457031 52.445312 50.523438 C 52.410156 50.578125 52.359375 50.628906 52.328125 50.699219 C 52.292969 50.765625 52.242188 50.820312 52.1875 50.886719 C 52.15625 50.941406 52.101562 50.992188 52.070312 51.042969 C 52.015625 51.097656 51.984375 51.164062 51.929688 51.21875 C 51.878906 51.269531 51.84375 51.320312 51.792969 51.375 C 51.742188 51.425781 51.691406 51.476562 51.640625 51.546875 C 51.589844 51.597656 51.535156 51.648438 51.503906 51.703125 C 51.449219 51.753906 51.417969 51.789062 51.363281 51.839844 C 51.3125 51.890625 51.261719 51.945312 51.210938 51.996094 C 51.160156 52.046875 51.105469 52.082031 51.054688 52.136719 C 51.003906 52.1875 50.953125 52.238281 50.882812 52.273438 C 50.832031 52.324219 50.78125 52.359375 50.730469 52.394531 C 50.679688 52.445312 50.609375 52.480469 50.558594 52.53125 C 50.507812 52.566406 50.453125 52.621094 50.402344 52.652344 C 50.351562 52.707031 50.28125 52.742188 50.214844 52.773438 C 50.164062 52.808594 50.113281 52.84375 50.042969 52.878906 C 49.972656 52.914062 49.921875 52.964844 49.855469 53 C 49.800781 53.035156 49.734375 53.070312 49.683594 53.105469 C 49.613281 53.140625 49.542969 53.171875 49.492188 53.207031 C 49.441406 53.242188 49.375 53.277344 49.320312 53.292969 C 49.253906 53.328125 49.183594 53.363281 49.117188 53.398438 C 49.0625 53.433594 48.996094 53.449219 48.945312 53.484375 C 48.875 53.519531 48.804688 53.535156 48.738281 53.570312 C 48.667969 53.605469 48.617188 53.625 48.550781 53.640625 C 48.480469 53.675781 48.410156 53.691406 48.324219 53.726562 C 48.257812 53.746094 48.207031 53.777344 48.136719 53.796875 C 48.070312 53.832031 47.984375 53.847656 47.914062 53.867188 C 47.84375 53.882812 47.792969 53.898438 47.726562 53.917969 C 47.640625 53.933594 47.570312 53.953125 47.5 53.96875 C 47.433594 53.988281 47.382812 54.003906 47.3125 54.019531 C 47.226562 54.039062 47.160156 54.054688 47.074219 54.074219 C 47.019531 54.089844 46.953125 54.109375 46.882812 54.109375 C 46.796875 54.125 46.710938 54.144531 46.625 54.144531 C 46.574219 54.144531 46.507812 54.160156 46.453125 54.160156 C 46.351562 54.175781 46.25 54.175781 46.144531 54.175781 C 46.09375 54.175781 46.058594 54.195312 46.007812 54.195312 C 45.855469 54.195312 45.714844 54.210938 45.5625 54.210938 L 29.132812 54.210938 C 28.976562 54.210938 28.820312 54.210938 28.683594 54.195312 C 28.632812 54.195312 28.597656 54.195312 28.546875 54.175781 C 28.445312 54.175781 28.339844 54.160156 28.238281 54.160156 C 28.1875 54.160156 28.117188 54.144531 28.066406 54.144531 C 27.980469 54.125 27.894531 54.125 27.808594 54.109375 C 27.742188 54.109375 27.6875 54.089844 27.621094 54.074219 C 27.535156 54.054688 27.449219 54.039062 27.378906 54.019531 C 27.3125 54.003906 27.261719 53.988281 27.191406 53.96875 C 27.105469 53.953125 27.035156 53.933594 26.949219 53.917969 C 26.882812 53.898438 26.832031 53.882812 26.761719 53.867188 C 26.691406 53.847656 26.605469 53.8125 26.539062 53.796875 C 26.46875 53.777344 26.417969 53.761719 26.351562 53.726562 C 26.28125 53.691406 26.210938 53.675781 26.125 53.640625 C 26.074219 53.625 26.007812 53.589844 25.953125 53.570312 C 25.886719 53.535156 25.816406 53.519531 25.75 53.484375 C 25.699219 53.449219 25.628906 53.433594 25.578125 53.398438 C 25.507812 53.363281 25.441406 53.328125 25.371094 53.292969 C 25.355469 53.292969 25.335938 53.277344 25.335938 53.277344 C 25.285156 53.261719 25.25 53.226562 25.199219 53.207031 C 25.132812 53.171875 25.0625 53.140625 25.011719 53.105469 C 24.960938 53.070312 24.90625 53.035156 24.839844 53 C 24.769531 52.964844 24.71875 52.914062 24.648438 52.878906 C 24.597656 52.84375 24.546875 52.808594 24.476562 52.773438 C 24.425781 52.742188 24.359375 52.6875 24.308594 52.652344 C 24.253906 52.621094 24.203125 52.566406 24.152344 52.53125 C 24.101562 52.480469 24.03125 52.445312 23.980469 52.394531 C 23.929688 52.359375 23.878906 52.308594 23.824219 52.273438 C 23.773438 52.222656 23.722656 52.1875 23.65625 52.136719 C 23.601562 52.082031 23.550781 52.046875 23.515625 51.996094 C 23.464844 51.945312 23.414062 51.890625 23.363281 51.839844 C 23.3125 51.789062 23.277344 51.753906 23.226562 51.703125 C 23.171875 51.648438 23.121094 51.597656 23.070312 51.546875 C 23.019531 51.496094 22.96875 51.441406 22.917969 51.375 C 22.863281 51.320312 22.832031 51.269531 22.777344 51.21875 C 22.726562 51.164062 22.691406 51.097656 22.640625 51.042969 C 22.605469 50.992188 22.554688 50.941406 22.519531 50.886719 C 22.46875 50.835938 22.433594 50.765625 22.382812 50.699219 C 22.347656 50.644531 22.296875 50.59375 22.265625 50.523438 C 22.210938 50.472656 22.179688 50.402344 22.144531 50.335938 C 22.109375 50.28125 22.074219 50.214844 22.039062 50.160156 C 22.007812 50.09375 21.972656 50.039062 21.9375 49.972656 C 21.902344 49.917969 21.867188 49.851562 21.835938 49.796875 C 21.800781 49.730469 21.765625 49.660156 21.730469 49.589844 C 21.695312 49.539062 21.679688 49.46875 21.644531 49.398438 C 21.609375 49.332031 21.578125 49.261719 21.558594 49.191406 C 21.527344 49.121094 21.507812 49.070312 21.472656 49 C 21.441406 48.933594 21.421875 48.863281 21.386719 48.777344 C 21.371094 48.707031 21.335938 48.65625 21.320312 48.585938 C 21.285156 48.515625 21.269531 48.429688 21.25 48.363281 C 21.234375 48.292969 21.214844 48.242188 21.199219 48.171875 C 21.183594 48.101562 21.164062 48.015625 21.128906 47.945312 C 21.113281 47.875 21.097656 47.808594 21.078125 47.753906 C 21.0625 47.667969 21.042969 47.601562 21.027344 47.511719 C 21.011719 47.445312 20.992188 47.375 20.992188 47.324219 C 20.976562 47.234375 20.957031 47.148438 20.957031 47.082031 C 20.941406 47.011719 20.941406 46.941406 20.925781 46.890625 C 20.925781 46.804688 20.90625 46.71875 20.90625 46.628906 C 20.90625 46.5625 20.890625 46.507812 20.890625 46.441406 C 20.890625 46.355469 20.890625 46.265625 20.871094 46.164062 C 20.871094 46.09375 20.871094 46.042969 20.871094 45.972656 C 20.871094 45.867188 20.871094 45.765625 20.871094 45.660156 C 20.871094 45.609375 20.871094 45.558594 20.871094 45.503906 C 20.871094 45.351562 20.890625 45.195312 20.90625 45.039062 L 22.726562 33.492188 C 22.726562 33.476562 22.726562 33.476562 22.726562 33.457031 C 23.226562 32.125 51.503906 32.125 52 33.457031 C 52 33.476562 52 33.492188 52 33.492188 L 52.738281 38.167969 L 53.820312 45.039062 C 53.835938 45.195312 53.855469 45.351562 53.855469 45.503906 L 53.855469 45.660156 C 53.855469 45.765625 53.855469 45.867188 53.855469 45.972656 Z M 53.855469 45.972656 " fill-opacity="1" fill-rule="nonzero"/></g><path fill="#ec316c" d="M 49.597656 18.15625 C 49.597656 16.859375 25.132812 16.859375 25.132812 18.15625 L 26.246094 11.09375 C 26.46875 8.722656 27.363281 6.578125 28.703125 4.792969 C 30.746094 2.09375 33.851562 0.3125 37.371094 0 C 40.890625 0.292969 44 2.09375 46.042969 4.792969 C 47.382812 6.558594 48.273438 8.722656 48.496094 11.09375 Z M 49.597656 18.15625 " fill-opacity="1" fill-rule="nonzero"/><g mask="url(#9e8dfc71ef)"><g transform="matrix(1, 0, 0, 1, 30, 12)"><g clip-path="url(#b7b5339ff7)"><g clip-path="url(#a318ededd4)"><path fill="#ffffff" d="M 3.335938 33.453125 C 2.117188 33.453125 1.121094 31.617188 1.121094 29.332031 L 1.121094 4.410156 C 1.121094 2.140625 2.117188 0.289062 3.335938 0.289062 C 4.144531 0.289062 4.867188 1.101562 5.242188 2.316406 C 5.433594 2.921875 5.550781 3.648438 5.550781 4.390625 L 5.550781 29.316406 C 5.550781 30.214844 5.398438 31.066406 5.125 31.738281 C 4.726562 32.777344 4.074219 33.453125 3.335938 33.453125 Z M 3.335938 33.453125 " fill-opacity="0.498" fill-rule="nonzero"/></g><g clip-path="url(#249441ab40)"><path fill="#ffffff" d="M 11.371094 33.453125 C 10.152344 33.453125 9.15625 31.617188 9.15625 29.332031 L 9.15625 4.410156 C 9.15625 2.140625 10.152344 0.289062 11.371094 0.289062 C 12.179688 0.289062 12.902344 1.101562 13.277344 2.316406 C 13.46875 2.921875 13.585938 3.648438 13.585938 4.390625 L 13.585938 29.316406 C 13.585938 30.214844 13.433594 31.066406 13.15625 31.738281 C 12.761719 32.777344 12.109375 33.453125 11.371094 33.453125 Z M 11.371094 33.453125 " fill-opacity="0.498" fill-rule="nonzero"/></g></g></g></g><g clip-path="url(#253a8189ee)"><path fill="#000000" d="M 53.855469 45.972656 C 53.855469 46.023438 53.855469 46.09375 53.855469 46.164062 C 53.855469 46.25 53.855469 46.335938 53.835938 46.441406 C 53.835938 46.507812 53.820312 46.578125 53.820312 46.628906 C 53.820312 46.71875 53.804688 46.804688 53.785156 46.890625 C 53.785156 46.960938 53.769531 47.027344 53.75 47.082031 C 53.734375 47.167969 53.734375 47.234375 53.71875 47.324219 C 53.699219 47.390625 53.683594 47.460938 53.683594 47.511719 C 53.664062 47.601562 53.648438 47.667969 53.632812 47.753906 C 53.613281 47.824219 53.597656 47.894531 53.578125 47.945312 C 53.5625 48.03125 53.546875 48.101562 53.527344 48.171875 C 53.511719 48.242188 53.492188 48.308594 53.460938 48.363281 C 53.441406 48.429688 53.40625 48.5 53.390625 48.585938 C 53.375 48.65625 53.339844 48.707031 53.320312 48.777344 C 53.289062 48.847656 53.269531 48.914062 53.234375 49 C 53.203125 49.070312 53.183594 49.121094 53.148438 49.191406 C 53.117188 49.261719 53.097656 49.332031 53.066406 49.398438 C 53.03125 49.453125 53.011719 49.519531 52.980469 49.589844 C 52.945312 49.660156 52.910156 49.730469 52.875 49.796875 C 52.839844 49.851562 52.808594 49.917969 52.773438 49.972656 C 52.738281 50.039062 52.703125 50.109375 52.667969 50.160156 C 52.636719 50.214844 52.601562 50.28125 52.566406 50.335938 C 52.53125 50.402344 52.480469 50.457031 52.445312 50.523438 C 52.410156 50.578125 52.359375 50.628906 52.328125 50.699219 C 52.292969 50.765625 52.242188 50.820312 52.1875 50.886719 C 52.15625 50.941406 52.101562 50.992188 52.070312 51.042969 C 52.015625 51.097656 51.984375 51.164062 51.929688 51.21875 C 51.878906 51.269531 51.84375 51.320312 51.792969 51.375 C 51.742188 51.425781 51.691406 51.476562 51.640625 51.546875 C 51.589844 51.597656 51.535156 51.648438 51.503906 51.703125 C 51.449219 51.753906 51.417969 51.789062 51.363281 51.839844 C 51.3125 51.890625 51.261719 51.945312 51.210938 51.996094 C 51.160156 52.046875 51.105469 52.082031 51.054688 52.136719 C 51.003906 52.1875 50.953125 52.238281 50.882812 52.273438 C 50.832031 52.324219 50.78125 52.359375 50.730469 52.394531 C 50.679688 52.445312 50.609375 52.480469 50.558594 52.53125 C 50.507812 52.566406 50.453125 52.621094 50.402344 52.652344 C 50.351562 52.707031 50.28125 52.742188 50.214844 52.773438 C 50.164062 52.808594 50.113281 52.84375 50.042969 52.878906 C 49.972656 52.914062 49.921875 52.964844 49.855469 53 C 49.800781 53.035156 49.734375 53.070312 49.683594 53.105469 C 49.613281 53.140625 49.542969 53.171875 49.492188 53.207031 C 49.441406 53.242188 49.375 53.277344 49.320312 53.292969 C 49.253906 53.328125 49.183594 53.363281 49.117188 53.398438 C 49.0625 53.433594 48.996094 53.449219 48.945312 53.484375 C 48.875 53.519531 48.804688 53.535156 48.738281 53.570312 C 48.667969 53.605469 48.617188 53.625 48.550781 53.640625 C 48.480469 53.675781 48.410156 53.691406 48.324219 53.726562 C 48.257812 53.746094 48.207031 53.777344 48.136719 53.796875 C 48.070312 53.832031 47.984375 53.847656 47.914062 53.867188 C 47.84375 53.882812 47.792969 53.898438 47.726562 53.917969 C 47.640625 53.933594 47.570312 53.953125 47.5 53.96875 C 47.433594 53.988281 47.382812 54.003906 47.3125 54.019531 C 47.226562 54.039062 47.160156 54.054688 47.074219 54.074219 C 47.019531 54.089844 46.953125 54.109375 46.882812 54.109375 C 46.796875 54.125 46.710938 54.144531 46.625 54.144531 C 46.574219 54.144531 46.507812 54.160156 46.453125 54.160156 C 46.351562 54.175781 46.25 54.175781 46.144531 54.175781 C 46.09375 54.175781 46.058594 54.195312 46.007812 54.195312 C 45.855469 54.195312 45.714844 54.210938 45.5625 54.210938 L 29.132812 54.210938 C 28.976562 54.210938 28.820312 54.210938 28.683594 54.195312 C 28.632812 54.195312 28.597656 54.195312 28.546875 54.175781 C 28.445312 54.175781 28.339844 54.160156 28.238281 54.160156 C 28.1875 54.160156 28.117188 54.144531 28.066406 54.144531 C 27.980469 54.125 27.894531 54.125 27.808594 54.109375 C 27.742188 54.109375 27.6875 54.089844 27.621094 54.074219 C 27.535156 54.054688 27.449219 54.039062 27.378906 54.019531 C 27.3125 54.003906 27.261719 53.988281 27.191406 53.96875 C 27.105469 53.953125 27.035156 53.933594 26.949219 53.917969 C 26.882812 53.898438 26.832031 53.882812 26.761719 53.867188 C 26.691406 53.847656 26.605469 53.8125 26.539062 53.796875 C 26.46875 53.777344 26.417969 53.761719 26.351562 53.726562 C 26.28125 53.691406 26.210938 53.675781 26.125 53.640625 C 26.074219 53.625 26.007812 53.589844 25.953125 53.570312 C 25.886719 53.535156 25.816406 53.519531 25.75 53.484375 C 25.699219 53.449219 25.628906 53.433594 25.578125 53.398438 C 25.507812 53.363281 25.441406 53.328125 25.371094 53.292969 C 25.355469 53.292969 25.335938 53.277344 25.335938 53.277344 C 26.367188 53.207031 27.378906 53.15625 28.410156 53.070312 C 32.171875 52.742188 35.929688 52.1875 39.621094 51.390625 C 42.675781 50.734375 45.734375 49.539062 47.929688 47.203125 C 48.324219 46.785156 48.6875 46.335938 48.996094 45.835938 C 49.785156 44.640625 50.335938 43.238281 50.507812 41.820312 L 49.785156 34.359375 L 48.292969 18.902344 L 47.605469 11.789062 C 47.519531 9.417969 46.761719 7.199219 45.527344 5.367188 C 43.640625 2.5625 40.652344 0.570312 37.148438 0.0703125 C 37.046875 0.0703125 36.925781 0.0703125 36.824219 0.0859375 C 36.996094 0.0507812 37.167969 0.0351562 37.335938 0.0351562 C 40.859375 0.328125 43.964844 2.128906 46.007812 4.828125 C 47.347656 6.59375 48.238281 8.757812 48.464844 11.128906 L 49.578125 18.191406 L 51.984375 33.527344 L 52.566406 37.195312 L 53.804688 45.074219 C 53.820312 45.226562 53.835938 45.382812 53.835938 45.539062 L 53.835938 45.695312 C 53.855469 45.765625 53.855469 45.867188 53.855469 45.972656 Z M 53.855469 45.972656 " fill-opacity="0.098" fill-rule="nonzero"/></g><path fill="#ffffff" d="M 27.328125 11.285156 C 27.261719 11.753906 27.207031 12.238281 27.414062 12.671875 C 27.449219 12.738281 27.5 12.808594 27.570312 12.84375 C 27.601562 12.859375 27.65625 12.859375 27.6875 12.84375 C 28 12.808594 28.253906 12.601562 28.425781 12.339844 C 28.597656 12.082031 28.703125 11.789062 28.804688 11.511719 C 29.113281 10.644531 29.492188 9.8125 29.921875 9.019531 C 30.316406 8.292969 30.796875 7.546875 31.535156 7.148438 C 31.773438 7.011719 32.050781 6.90625 32.308594 6.800781 C 32.941406 6.542969 33.542969 6.25 34.160156 5.953125 C 34.640625 5.710938 35.140625 5.46875 35.535156 5.070312 C 35.792969 4.8125 35.980469 4.484375 36.136719 4.152344 C 36.394531 3.582031 36.496094 2.839844 36.085938 2.355469 C 35.433594 1.609375 34.503906 2.007812 33.816406 2.371094 C 32.996094 2.804688 32.238281 3.304688 31.535156 3.910156 C 30.128906 5.105469 28.992188 6.628906 28.253906 8.308594 C 27.792969 9.261719 27.484375 10.265625 27.328125 11.285156 Z M 27.328125 11.285156 " fill-opacity="0.2" fill-rule="nonzero"/><g clip-path="url(#9c7676828e)"><path fill="#000000" d="M 53.855469 45.972656 C 53.855469 46.023438 53.855469 46.09375 53.855469 46.164062 C 53.855469 46.25 53.855469 46.335938 53.835938 46.441406 C 53.835938 46.507812 53.820312 46.578125 53.820312 46.628906 C 53.820312 46.71875 53.804688 46.804688 53.785156 46.890625 C 53.785156 46.960938 53.769531 47.027344 53.75 47.082031 C 53.734375 47.167969 53.734375 47.234375 53.71875 47.324219 C 53.699219 47.390625 53.683594 47.460938 53.683594 47.511719 C 53.664062 47.601562 53.648438 47.667969 53.632812 47.753906 C 53.613281 47.824219 53.597656 47.894531 53.578125 47.945312 C 53.5625 48.03125 53.546875 48.101562 53.527344 48.171875 C 53.511719 48.242188 53.492188 48.308594 53.460938 48.363281 C 53.441406 48.429688 53.40625 48.5 53.390625 48.585938 C 53.375 48.65625 53.339844 48.707031 53.320312 48.777344 C 53.289062 48.847656 53.269531 48.914062 53.234375 49 C 53.203125 49.070312 53.183594 49.121094 53.148438 49.191406 C 53.117188 49.261719 53.097656 49.332031 53.066406 49.398438 C 53.03125 49.453125 53.011719 49.519531 52.980469 49.589844 C 52.945312 49.660156 52.910156 49.730469 52.875 49.796875 C 52.839844 49.851562 52.808594 49.917969 52.773438 49.972656 C 52.738281 50.039062 52.703125 50.109375 52.667969 50.160156 C 52.636719 50.214844 52.601562 50.28125 52.566406 50.335938 C 52.53125 50.402344 52.480469 50.457031 52.445312 50.523438 C 52.410156 50.578125 52.359375 50.628906 52.328125 50.699219 C 52.292969 50.765625 52.242188 50.820312 52.1875 50.886719 C 52.15625 50.941406 52.101562 50.992188 52.070312 51.042969 C 52.015625 51.097656 51.984375 51.164062 51.929688 51.21875 C 51.878906 51.269531 51.84375 51.320312 51.792969 51.375 C 51.742188 51.425781 51.691406 51.476562 51.640625 51.546875 C 51.589844 51.597656 51.535156 51.648438 51.503906 51.703125 C 51.449219 51.753906 51.417969 51.789062 51.363281 51.839844 C 51.3125 51.890625 51.261719 51.945312 51.210938 51.996094 C 51.160156 52.046875 51.105469 52.082031 51.054688 52.136719 C 51.003906 52.1875 50.953125 52.238281 50.882812 52.273438 C 50.832031 52.324219 50.78125 52.359375 50.730469 52.394531 C 50.679688 52.445312 50.609375 52.480469 50.558594 52.53125 C 50.507812 52.566406 50.453125 52.621094 50.402344 52.652344 C 50.351562 52.707031 50.28125 52.742188 50.214844 52.773438 C 50.164062 52.808594 50.113281 52.84375 50.042969 52.878906 C 49.972656 52.914062 49.921875 52.964844 49.855469 53 C 49.800781 53.035156 49.734375 53.070312 49.683594 53.105469 C 49.613281 53.140625 49.542969 53.171875 49.492188 53.207031 C 49.441406 53.242188 49.375 53.277344 49.320312 53.292969 C 49.253906 53.328125 49.183594 53.363281 49.117188 53.398438 C 49.0625 53.433594 48.996094 53.449219 48.945312 53.484375 C 48.875 53.519531 48.804688 53.535156 48.738281 53.570312 C 48.667969 53.605469 48.617188 53.625 48.550781 53.640625 C 48.480469 53.675781 48.410156 53.691406 48.324219 53.726562 C 48.257812 53.746094 48.207031 53.777344 48.136719 53.796875 C 48.070312 53.832031 47.984375 53.847656 47.914062 53.867188 C 47.84375 53.882812 47.792969 53.898438 47.726562 53.917969 C 47.640625 53.933594 47.570312 53.953125 47.5 53.96875 C 47.433594 53.988281 47.382812 54.003906 47.3125 54.019531 C 47.226562 54.039062 47.160156 54.054688 47.074219 54.074219 C 47.019531 54.089844 46.953125 54.109375 46.882812 54.109375 C 46.796875 54.125 46.710938 54.144531 46.625 54.144531 C 46.574219 54.144531 46.507812 54.160156 46.453125 54.160156 C 46.351562 54.175781 46.25 54.175781 46.144531 54.175781 C 46.09375 54.175781 46.058594 54.195312 46.007812 54.195312 C 45.855469 54.195312 45.714844 54.210938 45.5625 54.210938 L 42.625 54.210938 C 42.988281 54.175781 43.347656 54.160156 43.707031 54.109375 C 44.34375 54.019531 44.960938 53.832031 45.578125 53.605469 C 47.449219 52.964844 49.339844 52.082031 50.609375 50.558594 C 51.726562 49.226562 52.257812 47.480469 52.445312 45.730469 C 52.636719 43.980469 52.496094 42.234375 52.394531 40.484375 C 52.394531 39.378906 52.242188 38.253906 52.464844 37.144531 C 52.496094 37.144531 52.53125 37.164062 52.566406 37.164062 L 53.804688 45.039062 C 53.820312 45.195312 53.835938 45.351562 53.835938 45.503906 L 53.835938 45.660156 C 53.855469 45.765625 53.855469 45.867188 53.855469 45.972656 Z M 53.855469 45.972656 " fill-opacity="0.098" fill-rule="nonzero"/></g></svg>